HIERARCHY
ROOT hip
{
	OFFSET 0.000000 0.000000 0.000000 
	CHANNELS 6 Xposition Yposition Zposition Xrotation Zrotation Yrotation
	JOINT abdomen
	{
		OFFSET 0.000000 3.402643 0.000000 
		CHANNELS 3 Xrotation Zrotation Yrotation
		JOINT chest
		{
			OFFSET 0.000000 8.438565 -0.680529 
			CHANNELS 3 Xrotation Zrotation Yrotation
			JOINT neck
			{
				OFFSET 0.000000 10.207942 -0.272212 
				CHANNELS 3 Xrotation Zrotation Yrotation
				JOINT head
				{
					OFFSET 0.000000 3.130431 0.000000 
					CHANNELS 3 Xrotation Zrotation Yrotation
					End Site
					{
						OFFSET 0.000000 3.130435 0.000000 
					}
				}
			}
			JOINT lCollar
			{
				OFFSET 3.470700 6.669187 -0.816635 
				CHANNELS 3 Yrotation Zrotation Xrotation
				JOINT lShldr
				{
					OFFSET 3.198488 0.000000 0.000000 
					CHANNELS 3 Zrotation Yrotation Xrotation
					JOINT lForeArm
					{
						OFFSET 10.139888 0.000000 0.000000 
						CHANNELS 3 Yrotation Zrotation Xrotation
						JOINT lHand
						{
							OFFSET 8.370511 0.000000 0.000000 
							CHANNELS 3 Zrotation Yrotation Xrotation
							End Site
							{
								OFFSET 4.083176 0.000000 0.000000 
							}
						}
					}
				}
			}
			JOINT rCollar
			{
				OFFSET -3.470700 6.669187 -0.816635 
				CHANNELS 3 Yrotation Zrotation Xrotation
				JOINT rShldr
				{
					OFFSET -3.198488 0.000000 0.000000 
					CHANNELS 3 Zrotation Yrotation Xrotation
					JOINT rForeArm
					{
						OFFSET -10.139888 0.000000 0.000000 
						CHANNELS 3 Yrotation Zrotation Xrotation
						JOINT rHand
						{
							OFFSET -8.370511 0.000000 0.000000 
							CHANNELS 3 Zrotation Yrotation Xrotation
							End Site
							{
								OFFSET -4.083176 0.000000 0.000000 
							}
						}
					}
				}
			}
		}
	}
	JOINT lThigh
	{
		OFFSET 5.308129 -1.633274 1.361059 
		CHANNELS 3 Xrotation Zrotation Yrotation
		JOINT lShin
		{
			OFFSET -2.041588 -20.007561 0.000000 
			CHANNELS 3 Xrotation Zrotation Yrotation
			JOINT lFoot
			{
				OFFSET 0.000000 -19.190928 -1.224953 
				CHANNELS 3 Xrotation Yrotation Zrotation
				End Site
				{
					OFFSET 0.000000 -2.449906 4.627600 
				}
			}
		}
	}
	JOINT rThigh
	{
		OFFSET -5.308129 -1.633274 1.361059 
		CHANNELS 3 Xrotation Zrotation Yrotation
		JOINT rShin
		{
			OFFSET 2.041588 -20.007561 0.000000 
			CHANNELS 3 Xrotation Zrotation Yrotation
			JOINT rFoot
			{
				OFFSET 0.000000 -19.190928 -1.224953 
				CHANNELS 3 Xrotation Yrotation Zrotation
				End Site
				{
					OFFSET 0.000000 -2.449906 4.627600 
				}
			}
		}
	}
}
MOTION
Frames: 16
Frame Time: 0.016667
0.107888 44.426868 -0.249620 1.555530 3.436240 -6.283280 -20.098000 -0.528147 3.905820 15.459000 -0.204267 1.785800 0.578387 7.570220 0.418455 -8.603520 0.000000 0.000000 2.000000 -2.000000 0.000000 -72.921402 -1.355670 159.856003 25.302999 -0.338448 0.058493 5.533120 -0.645220 -143.020004 -2.000000 2.000000 0.000000 -108.037003 -175.175995 -4.279900 -36.172199 0.325213 0.080701 6.161180 2.544720 -137.315002 -6.042480 -8.598180 -6.585933 18.715416 2.539831 1.585762 -13.995780 13.974723 4.235878 -9.810882 1.785245 22.497456 27.028858 -3.078108 -1.965333 -16.991711 -11.936605 -3.332068 
0.172640 44.398182 -0.138528 1.673280 3.631270 -6.260780 -20.150400 -0.633928 3.790330 15.361300 -0.058353 1.714290 -2.502250 7.918740 -0.465831 -8.603520 0.000000 0.000000 2.000000 -2.000000 0.000000 -69.132004 -2.831440 159.341995 25.146799 -0.338607 0.058156 5.537820 -0.609637 -143.470001 -2.000000 2.000000 0.000000 -111.210999 -176.464996 -4.100230 -37.295300 0.323610 0.082848 6.117010 2.681160 -138.513000 -6.072290 -8.811082 -6.271470 18.660879 2.504620 1.581343 -13.986198 13.814076 4.225350 -10.028281 1.621321 22.571152 27.430601 -3.095721 -1.983896 -17.311346 -11.948214 -3.401359 
0.231011 44.364296 -0.014381 1.781150 3.748190 -6.211260 -20.232599 -0.712942 3.634950 15.244100 0.155579 1.616390 -5.349530 8.399800 -1.429860 -8.603520 0.000000 0.000000 2.000000 -2.000000 0.000000 -64.941597 -4.670370 157.998993 24.756100 -0.339000 0.057311 5.534650 -0.602371 -143.548004 -2.000000 2.000000 0.000000 -114.960999 -178.016998 -3.940280 -38.457401 0.321907 0.085037 6.063700 2.810620 -139.671997 -6.040478 -8.913110 -5.848751 18.565756 2.475507 1.569238 -13.938370 13.531138 4.144246 -10.141358 1.483518 22.663677 27.719604 -3.066730 -2.003268 -17.641233 -11.965374 -3.508591 
0.292313 44.327431 0.148876 1.908090 3.611280 -6.148930 -20.354300 -0.750235 3.424050 15.205000 0.301415 1.504970 -7.891170 8.823660 -2.401460 -8.603520 0.000000 0.000000 2.000000 -2.000000 0.000000 -60.310799 -6.765750 155.473007 24.170200 -0.339579 0.056038 5.533990 -0.623882 -143.283997 -2.000000 2.000000 0.000000 -119.296997 -179.931000 -3.642750 -39.619499 0.320161 0.087191 6.017300 2.885270 -140.382996 -6.113135 -8.758214 -5.263838 18.800602 2.496224 1.597551 -14.085837 13.006359 4.016089 -10.156204 1.585771 22.609344 27.927896 -3.054136 -2.017083 -17.941324 -11.963234 -3.579279 
0.332013 44.285641 0.330886 1.750710 3.162590 -6.250650 -20.483700 -0.699481 3.253270 15.048700 0.408263 1.425480 -9.839770 9.178660 -3.027030 -8.603520 0.000000 0.000000 2.000000 -2.000000 0.000000 -54.751499 -9.507120 152.207001 22.929899 -0.340761 0.053326 5.525330 -0.695500 -142.531998 -2.000000 2.000000 0.000000 -124.473000 177.617996 -3.793150 -40.342201 0.319053 0.088512 6.055480 2.822140 -139.768997 -6.066805 -8.417146 -5.151000 19.582361 2.554539 1.632305 -14.680508 12.834427 4.026088 -9.867810 2.026719 22.482016 28.123728 -3.063657 -2.026613 -18.136269 -11.945333 -3.615931 
0.375715 44.247601 0.523258 1.691560 2.860080 -6.399560 -20.652800 -0.770708 3.118720 14.960800 0.388764 1.358400 -11.282100 9.537790 -3.635110 -8.603520 0.000000 0.000000 2.000000 -2.000000 0.000000 -48.146900 -12.561400 148.619003 21.123301 -0.342378 0.049330 5.509480 -0.853587 -140.781998 -2.000000 2.000000 0.000000 -130.087997 174.774002 -4.498390 -40.840302 0.318280 0.089415 6.116550 2.681560 -138.522003 -6.099458 -8.197633 -4.931377 20.248646 2.587754 1.655812 -15.104674 12.706530 4.067478 -9.739823 2.305833 22.288639 28.335442 -3.027532 -2.064322 -18.181032 -11.833716 -3.589159 
0.416991 44.208652 0.743613 1.535030 2.791970 -6.682640 -20.851400 -0.911138 3.022240 14.872900 0.417858 1.286540 -12.165300 9.963420 -4.110810 -8.603520 0.000000 0.000000 2.000000 -2.000000 0.000000 -40.760101 -15.567700 144.520996 19.209200 -0.343952 0.045043 5.464900 -1.086230 -138.296997 -2.000000 2.000000 0.000000 -136.160995 171.666000 -5.847920 -41.123501 0.317837 0.089925 6.176010 2.522390 -137.119995 -5.928607 -8.241298 -4.634830 20.700209 2.609188 1.690920 -15.362428 12.701228 4.111328 -9.770899 2.396183 22.086851 29.082952 -3.028112 -2.094223 -18.327827 -11.594293 -3.524095 
0.449412 44.164257 1.009563 1.075740 3.046340 -7.159180 -21.040300 -1.084470 2.949080 14.696900 0.650878 1.212500 -12.427900 10.570600 -4.361430 -8.603520 0.000000 0.000000 2.000000 -2.000000 0.000000 -32.902802 -18.144899 139.819000 17.617399 -0.345152 0.041439 5.397980 -1.355660 -135.322006 -2.000000 2.000000 0.000000 -142.694000 168.429001 -7.871030 -41.211300 0.317699 0.090083 6.222710 2.408110 -136.057999 -5.199713 -8.677759 -4.309678 20.744297 2.648202 1.687113 -15.554026 12.912010 4.185458 -9.773789 2.186651 21.958115 30.422523 -3.018987 -2.181859 -18.624779 -11.115197 -3.371243 
0.464849 44.131817 1.270123 0.410624 2.734310 -7.362780 -21.269199 -1.220620 2.780190 14.218500 0.553238 1.120190 -12.336400 10.630900 -4.664670 -8.603520 0.000000 0.000000 2.000000 -2.000000 0.000000 -25.032200 -20.773100 133.462006 16.933800 -0.345636 0.039882 5.311100 -1.648110 -132.128006 -2.000000 2.000000 0.000000 30.734100 14.823000 168.182007 -40.742599 0.318432 0.089238 6.259080 2.320350 -135.270004 -4.407370 -8.550593 -4.278922 21.282862 2.747447 1.685721 -15.931966 12.920821 4.187433 -9.502943 2.549864 21.308008 31.801624 -2.993489 -2.254460 -18.930956 -10.594325 -3.234817 
0.476770 44.131939 1.567836 -0.293220 2.373020 -7.658620 -21.495300 -1.204170 2.656940 13.700800 0.591444 1.071470 -12.885400 11.040000 -4.808530 -8.603520 0.000000 0.000000 2.000000 -2.000000 0.000000 -17.319700 -22.674700 128.979004 17.216999 -0.345438 0.040528 5.301200 -1.700100 -131.509995 -2.000000 2.000000 0.000000 23.975500 17.763599 163.432999 -40.488701 0.318826 0.088779 6.246940 2.322720 -135.328003 -3.514169 -8.430332 -4.418070 21.823513 2.836246 1.702849 -16.212896 13.246236 4.264321 -9.193557 2.912026 20.547035 33.065578 -2.936850 -2.338578 -18.679913 -10.145267 -3.021641 
0.469153 44.169582 1.885877 -0.996714 2.021180 -7.974590 -21.710199 -1.157170 2.615020 13.202700 0.629545 1.061340 -13.779700 11.556700 -5.004210 -8.603520 0.000000 0.000000 2.000000 -2.000000 0.000000 -9.805650 -24.162800 126.403000 18.330299 -0.344627 0.043057 5.347760 -1.547730 -133.216003 -2.000000 2.000000 0.000000 17.146601 20.227501 157.811005 -40.234798 0.319219 0.088317 6.249470 2.333980 -135.436005 -2.632781 -8.335753 -4.582689 22.481339 2.929846 1.710855 -16.344290 13.633758 4.288843 -8.976474 3.323808 19.747766 34.414692 -2.908840 -2.428788 -18.162788 -9.857476 -2.799700 
0.425975 44.249283 2.207411 -1.690260 1.766810 -8.216170 -21.875799 -1.168500 2.667900 12.773100 0.551512 1.086730 -14.701300 11.971600 -5.371730 -8.603520 0.000000 0.000000 2.000000 -2.000000 0.000000 -2.461340 -25.521200 125.681999 20.136900 -0.343207 0.047127 5.433960 -1.206750 -136.957001 -2.000000 2.000000 0.000000 10.422300 22.057899 151.311005 -39.727001 0.319997 0.087388 6.272080 2.267470 -134.811996 -1.764484 -8.262102 -4.687059 23.048258 3.039256 1.713903 -16.062092 13.864401 4.199873 -8.669567 3.624171 19.119673 35.577740 -2.866524 -2.506347 -17.521484 -9.851383 -2.664202 
0.332696 44.380913 2.562322 -2.168920 1.698000 -8.228330 -22.111000 -1.235570 2.683040 12.411700 0.551026 1.083250 -15.173900 12.241500 -5.580360 -8.603520 0.000000 0.000000 2.000000 -2.000000 0.000000 4.291690 -27.175400 122.858002 21.426001 -0.342116 0.050003 5.445810 -1.147780 -137.651001 -2.000000 2.000000 0.000000 4.017600 24.162500 143.977997 -38.408600 0.321980 0.084946 6.296270 2.194820 -134.188995 -1.097498 -8.256958 -4.978545 23.433277 3.103918 1.701705 -15.122445 14.033225 3.958544 -8.299397 3.756756 18.797163 36.109035 -2.846769 -2.521487 -17.348478 -10.208595 -2.715834 
0.217354 44.561352 2.949113 -2.608700 1.795010 -8.050480 -22.426600 -1.389690 2.632320 12.030900 0.511859 1.046320 -15.383600 12.633000 -5.749880 -8.603520 0.000000 0.000000 2.000000 -2.000000 0.000000 10.431000 -28.947201 119.467003 22.422100 -0.341228 0.052208 5.454600 -1.146890 -137.602997 -2.000000 2.000000 0.000000 -1.970010 26.266399 136.263000 -36.768002 0.324368 0.081844 6.312860 2.133520 -133.662994 -0.303574 -8.237989 -5.092814 23.561670 3.179420 1.714531 -13.894135 13.678675 3.471052 -7.857916 3.845441 18.981550 36.195820 -2.872190 -2.537881 -17.098185 -10.358138 -2.662336 
0.084145 44.776310 3.360765 -2.970270 1.833470 -7.770850 -22.801100 -1.540130 2.562990 11.689300 0.366659 1.007250 -15.302700 13.123400 -5.898030 -8.603520 0.000000 0.000000 2.000000 -2.000000 0.000000 16.085300 -31.081100 114.845001 22.881100 -0.340807 0.053218 5.425120 -1.242200 -136.585007 -2.000000 2.000000 0.000000 -7.628770 28.359501 128.132004 -34.824600 0.327080 0.078083 6.358640 2.002790 -132.524002 0.409648 -8.107676 -5.130011 23.617737 3.267480 1.691920 -12.548483 13.080633 2.920440 -7.213331 3.971821 19.472313 35.650745 -2.915010 -2.471152 -16.259768 -10.496339 -2.507221 
-0.062726 45.011658 3.790347 -3.204420 1.628310 -7.454390 -23.202700 -1.586770 2.547730 11.416000 0.067491 1.014530 -14.906000 13.751200 -6.076750 -8.603520 0.000000 0.000000 2.000000 -2.000000 0.000000 21.569799 -33.733398 108.200996 22.568600 -0.341095 0.052531 5.373200 -1.448530 -134.313004 -2.000000 2.000000 0.000000 -13.076100 30.441200 119.584999 -32.578499 0.330053 0.073624 6.443030 1.717790 -130.042007 0.982572 -7.730807 -5.295284 23.752613 3.357173 1.678659 -11.225576 12.670192 2.456325 -6.623830 4.412400 20.081751 34.939816 -2.961534 -2.436499 -14.562004 -10.795918 -2.178717 
